<?xml version="1.0" encoding="UTF-8" standalone="no"?>
<!DOCTYPE svg PUBLIC "-//W3C//DTD SVG 1.1//EN" "http://www.w3.org/Graphics/SVG/1.1/DTD/svg11.dtd">
<svg width="100%" height="100%" viewBox="0 0 2000 2000" version="1.1" xmlns="http://www.w3.org/2000/svg" xmlns:xlink="http://www.w3.org/1999/xlink" xml:space="preserve" xmlns:serif="http://www.serif.com/" style="fill-rule:evenodd;clip-rule:evenodd;stroke-linejoin:round;stroke-miterlimit:2;">
    <g>
        <g id="Layer1">
            <g transform="matrix(1,0,0,2.52273,0,0)">
                <rect x="632" y="0" width="208" height="220" style="fill:rgb(111,18,63);"/>
            </g>
            <rect x="421" y="111" width="239" height="444" style="fill:rgb(111,18,63);"/>
            <rect x="316" y="222" width="124" height="333" style="fill:rgb(111,18,63);"/>
            <g transform="matrix(1,0,0,3.18995,0,-729.252)">
                <rect x="211" y="333" width="209" height="419.129" style="fill:rgb(111,18,63);"/>
            </g>
            <g transform="matrix(1,0,0,1.00956,0,-9.55682)">
                <rect x="105.489" y="560" width="124.511" height="880" style="fill:rgb(111,18,63);"/>
            </g>
            <g transform="matrix(1.0057,0,0,1.00489,-0.797992,-6.51889)">
                <rect x="0" y="670" width="140" height="663.214" style="fill:rgb(111,18,63);"/>
            </g>
            <g transform="matrix(1.00769,0,0,1,-6.46154,0)">
                <rect x="320" y="666.757" width="520" height="1111.24" style="fill:rgb(111,18,63);"/>
            </g>
            <rect x="421" y="1730" width="419" height="159" style="fill:rgb(111,18,63);"/>
            <g transform="matrix(0.996209,0,0,1,2.39611,0)">
                <rect x="632" y="1778" width="738" height="222" style="fill:rgb(111,18,63);"/>
            </g>
            <g transform="matrix(1.11111,0,0,1.00306,-116.667,-6.11756)">
                <rect x="960" y="1222.38" width="90" height="777.621" style="fill:rgb(111,18,63);"/>
            </g>
            <g transform="matrix(1,0,0,1.00823,0,-5.47325)">
                <rect x="1160" y="665" width="418.202" height="1215" style="fill:rgb(111,18,63);"/>
            </g>
            <g transform="matrix(1,0,0,1.00451,0,-8.02347)">
                <rect x="1500" y="670" width="183.202" height="1108" style="fill:rgb(111,18,63);"/>
            </g>
            <g transform="matrix(1.31605,0,0,1.11599,-565.164,-193.355)">
                <rect x="1630" y="460" width="158.202" height="1207" style="fill:rgb(111,18,63);"/>
            </g>
            <g transform="matrix(1,0,0,1.00478,0,-6.90904)">
                <rect x="1780" y="560" width="113.702" height="884.5" style="fill:rgb(111,18,63);"/>
            </g>
            <g transform="matrix(1,0,0,0.997327,0,3.56395)">
                <rect x="1840" y="665" width="160" height="668.214" style="fill:rgb(111,18,63);"/>
            </g>
            <g transform="matrix(1.00989,0,0,1,-6.25229,0)">
                <rect x="632" y="0" width="728" height="220" style="fill:rgb(111,18,63);"/>
            </g>
            <g transform="matrix(1.0043,0,0,1,-4.98723,0)">
                <rect x="1160" y="111" width="418.202" height="444" style="fill:rgb(111,18,63);"/>
            </g>
            <rect x="1170" y="300" width="510" height="255" style="fill:rgb(111,18,63);"/>
            <rect x="1500" y="222" width="183.202" height="178" style="fill:rgb(111,18,63);"/>
        </g>
    </g>
</svg>
