<?xml version="1.0" encoding="UTF-8" standalone="no"?>
<!DOCTYPE svg PUBLIC "-//W3C//DTD SVG 1.1//EN" "http://www.w3.org/Graphics/SVG/1.1/DTD/svg11.dtd">
<svg width="100%" height="100%" viewBox="0 0 44 38" version="1.1" xmlns="http://www.w3.org/2000/svg" xmlns:xlink="http://www.w3.org/1999/xlink" xml:space="preserve" xmlns:serif="http://www.serif.com/" style="fill-rule:evenodd;clip-rule:evenodd;stroke-linejoin:round;stroke-miterlimit:2;">
    <g>
        <path d="M2.342,2.342L20.289,2.342L20.289,4.675L4.67,4.675L4.67,7.037L2.342,7.037L2.342,2.342Z" style="fill:rgb(200,33,113);"/>
        <g>
            <g transform="matrix(1,0,0,1.00826,0,-0.0581387)">
                <rect x="2.342" y="7.037" width="36.658" height="27.963" style="fill:rgb(221,38,128);"/>
            </g>
            <g transform="matrix(0.0954778,0,0,0.920524,37.7764,2.89262)">
                <rect x="2.342" y="7.037" width="36.658" height="27.963" style="fill:rgb(221,38,128);"/>
            </g>
        </g>
        <g transform="matrix(1.6151,0,0,1,-1.44691,-2.34158)">
            <rect x="2.342" y="35.111" width="24.158" height="2.341" style="fill:rgb(228,88,154);"/>
        </g>
        <g id="Layer1">
            <g transform="matrix(0.997036,0,0,0.936732,-0.150339,0)">
                <rect x="2.5" y="0" width="18" height="2.5" style="fill:rgb(238,160,197);"/>
            </g>
            <g transform="matrix(1,0,0,1.0034,0,-0.00796498)">
                <rect x="0" y="2.342" width="2.342" height="32.658" style="fill:rgb(238,160,197);"/>
            </g>
            <g transform="matrix(1.61484,0,0,1,-1.44011,0)">
                <rect x="2.342" y="35.111" width="24.158" height="2.341" style="fill:rgb(238,160,197);"/>
            </g>
            <g transform="matrix(1,0,0,4.30463,0,-116.029)">
                <rect x="41.353" y="29.131" width="2.341" height="5.98" style="fill:rgb(238,160,197);"/>
            </g>
            <g transform="matrix(0.994527,0,0,0.985351,0.226315,0.137235)">
                <rect x="39" y="7" width="2.353" height="2.368" style="fill:rgb(238,160,197);"/>
            </g>
            <g transform="matrix(0.994527,0,0,0.985351,-18.4977,-4.55563)">
                <rect x="39" y="7" width="2.353" height="2.368" style="fill:rgb(238,160,197);"/>
            </g>
            <g transform="matrix(0.994527,0,0,0.985351,-36.4567,0.139178)">
                <rect x="39" y="7" width="2.353" height="2.368" style="fill:rgb(238,160,197);"/>
            </g>
            <g transform="matrix(14.5943,0,0,0.997196,-564.508,-2.30517)">
                <rect x="39" y="7" width="2.353" height="2.368" style="fill:rgb(238,160,197);"/>
            </g>
        </g>
    </g>
</svg>
