<?xml version="1.0" encoding="UTF-8" standalone="no"?>
<!DOCTYPE svg PUBLIC "-//W3C//DTD SVG 1.1//EN" "http://www.w3.org/Graphics/SVG/1.1/DTD/svg11.dtd">
<svg width="100%" height="100%" viewBox="0 0 44 38" version="1.1" xmlns="http://www.w3.org/2000/svg" xmlns:xlink="http://www.w3.org/1999/xlink" xml:space="preserve" xmlns:serif="http://www.serif.com/" style="fill-rule:evenodd;clip-rule:evenodd;stroke-linejoin:round;stroke-miterlimit:2;">
    <g transform="matrix(1,0,0,1,-1.33227e-15,-0.000131936)">
        <g>
            <g>
                <g transform="matrix(1,0,0,1.027,0,-0.0619206)">
                    <rect x="2.3" y="2.293" width="10.738" height="32.002" style="fill:rgb(200,33,113);"/>
                </g>
                <g transform="matrix(0.214261,0,0,0.0715815,34.0005,6.71091)">
                    <rect x="2.3" y="2.293" width="10.738" height="32.002" style="fill:rgb(200,33,113);"/>
                </g>
                <path d="M4.601,32.869L6.9,32.869L6.9,22.167L9.199,22.167L9.199,11.465L41.393,11.465L41.393,21.413L39.093,21.413L39.093,28.287L36.794,28.287L36.794,35.16L4.601,35.16L4.601,32.869Z" style="fill:rgb(221,38,128);"/>
            </g>
            <g transform="matrix(2.01394,4.93038e-32,-1.2074e-32,1.00537,-0.110678,32.8667)">
                <rect x="2.339" y="0" width="15.986" height="2.281" style="fill:rgb(228,90,155);"/>
            </g>
            <g id="Layer1">
                <g transform="matrix(1.00712,0,0,1.00537,-0.0555098,-3.8778e-16)">
                    <rect x="2.339" y="0" width="15.986" height="2.281" style="fill:rgb(239,155,195);"/>
                </g>
                <g transform="matrix(1.25891e-16,2.05596,-1.00537,6.15614e-17,2.29301,-2.51509)">
                    <rect x="2.339" y="0" width="15.986" height="2.281" style="fill:rgb(239,155,195);"/>
                </g>
                <g transform="matrix(2.15778,4.93038e-32,-1.29363e-32,1.00537,-2.74646,35.1597)">
                    <rect x="2.339" y="0" width="15.986" height="2.281" style="fill:rgb(239,155,195);"/>
                </g>
                <g transform="matrix(3.25783e-17,-0.429948,1.00817,6.11255e-17,36.794,36.1652)">
                    <rect x="2.339" y="0" width="15.986" height="2.281" style="fill:rgb(239,155,195);"/>
                </g>
                <g transform="matrix(3.25783e-17,-0.429948,1.00817,6.11255e-17,39.0934,29.292)">
                    <rect x="2.339" y="0" width="15.986" height="2.281" style="fill:rgb(239,155,195);"/>
                </g>
                <g transform="matrix(4.43567e-17,-0.622303,1.00817,6.08537e-17,41.3928,22.8687)">
                    <rect x="2.339" y="0" width="15.986" height="2.281" style="fill:rgb(239,155,195);"/>
                </g>
                <g transform="matrix(-2.01385,-2.52877e-16,1.20621e-16,-1.00817,46.1024,11.4652)">
                    <rect x="2.339" y="0" width="15.986" height="2.281" style="fill:rgb(239,155,195);"/>
                </g>
                <g transform="matrix(4.72436e-17,-0.66945,1.00817,6.07871e-17,6.89992,23.7326)">
                    <rect x="2.339" y="0" width="15.986" height="2.281" style="fill:rgb(239,155,195);"/>
                </g>
                <g transform="matrix(4.72436e-17,-0.66945,1.00817,6.07871e-17,4.60052,34.4345)">
                    <rect x="2.339" y="0" width="15.986" height="2.281" style="fill:rgb(239,155,195);"/>
                </g>
                <g>
                    <g transform="matrix(1.53781e-17,-0.143299,1.06494,6.50065e-17,2.17165,35.4948)">
                        <rect x="2.339" y="0" width="15.986" height="2.281" style="fill:rgb(239,155,195);"/>
                    </g>
                    <g transform="matrix(1.60507e-17,-0.159971,1.00878,6.15439e-17,2.29974,35.8003)">
                        <rect x="2.339" y="0" width="15.986" height="2.281" style="fill:rgb(239,155,195);"/>
                    </g>
                </g>
                <g transform="matrix(1.50299e-17,-0.143299,1.00878,6.15675e-17,36.794,9.50095)">
                    <rect x="2.339" y="0" width="15.986" height="2.281" style="fill:rgb(239,155,195);"/>
                </g>
                <g transform="matrix(1.50299e-17,-0.143299,1.00878,6.15675e-17,34.4932,7.21017)">
                    <rect x="2.339" y="0" width="15.986" height="2.281" style="fill:rgb(239,155,195);"/>
                </g>
            </g>
        </g>
        <g>
            <rect x="13.038" y="4.592" width="19.156" height="4.573" style="fill:rgb(254,97,0);"/>
            <g>
                <g transform="matrix(3.2577e-17,-0.429927,1.00817,6.11255e-17,10.7386,10.1713)">
                    <rect x="2.339" y="0" width="15.986" height="2.281" style="fill:rgb(255,191,153);"/>
                </g>
                <g transform="matrix(3.2577e-17,-0.429927,1.00817,6.11255e-17,32.1938,10.1713)">
                    <rect x="2.339" y="0" width="15.986" height="2.281" style="fill:rgb(255,191,153);"/>
                </g>
                <g transform="matrix(1.48596,6.25157e-18,2.0994e-18,1.00817,7.26346,2.29301)">
                    <rect x="2.339" y="0" width="15.986" height="2.281" style="fill:rgb(255,191,153);"/>
                </g>
            </g>
        </g>
    </g>
</svg>
