<?xml version="1.0" encoding="UTF-8" standalone="no"?>
<!DOCTYPE svg PUBLIC "-//W3C//DTD SVG 1.1//EN" "http://www.w3.org/Graphics/SVG/1.1/DTD/svg11.dtd">
<svg width="100%" height="100%" viewBox="0 0 2000 2000" version="1.1" xmlns="http://www.w3.org/2000/svg" xmlns:xlink="http://www.w3.org/1999/xlink" xml:space="preserve" xmlns:serif="http://www.serif.com/" style="fill-rule:evenodd;clip-rule:evenodd;stroke-linejoin:round;stroke-miterlimit:2;">
    <g>
        <g>
            <g transform="matrix(0.981868,0,0,0.998824,0,-2.12493)">
                <rect x="0" y="120" width="120" height="1060" style="fill:rgb(111,18,63);"/>
            </g>
            <g transform="matrix(6.01221e-17,0.981868,-0.908157,5.56086e-17,1991.63,1882.18)">
                <rect x="0" y="120" width="120" height="1060" style="fill:rgb(111,18,63);"/>
            </g>
            <g transform="matrix(6.01221e-17,0.981868,-1.88679,1.15533e-16,2226.42,117.734)">
                <rect x="0" y="120" width="120" height="1060" style="fill:rgb(111,18,63);"/>
            </g>
            <g transform="matrix(0.981868,1.2326e-32,0,1.88679,1764.82,-226.415)">
                <rect x="0" y="120" width="120" height="1060" style="fill:rgb(111,18,63);"/>
            </g>
            <g transform="matrix(0.983796,2.17295e-33,0,0.332624,1529.5,78.0851)">
                <rect x="0" y="120" width="120" height="1060" style="fill:rgb(111,18,63);"/>
            </g>
            <g transform="matrix(6.02401e-17,0.983796,-0.332624,2.03674e-17,1922.5,351.945)">
                <rect x="0" y="120" width="120" height="1060" style="fill:rgb(111,18,63);"/>
            </g>
        </g>
        <g transform="matrix(6.00837e-17,0.981241,-0.332979,2.03891e-17,1451.77,470.582)">
            <rect x="0" y="120" width="120" height="1060" style="fill:rgb(111,18,63);"/>
        </g>
        <g transform="matrix(6.01841e-17,0.982882,-0.221989,1.35929e-17,1085.49,588.232)">
            <rect x="0" y="120" width="120" height="1060" style="fill:rgb(111,18,63);"/>
        </g>
        <g transform="matrix(6.01841e-17,0.982882,-0.221989,1.35929e-17,850.181,705.837)">
            <rect x="0" y="120" width="120" height="1060" style="fill:rgb(111,18,63);"/>
        </g>
        <g transform="matrix(0.982882,-1.2326e-32,0,0.221989,1293.86,914.65)">
            <rect x="0" y="120" width="120" height="1060" style="fill:rgb(111,18,63);"/>
        </g>
        <g transform="matrix(0.982882,-1.2326e-32,0,0.221989,1175.92,1149.96)">
            <rect x="0" y="120" width="120" height="1060" style="fill:rgb(111,18,63);"/>
        </g>
        <g transform="matrix(0.979313,-2.46454e-32,0,0.443861,470.716,770.371)">
            <rect x="0" y="120" width="120" height="1060" style="fill:rgb(111,18,63);"/>
        </g>
        <g>
            <g transform="matrix(6.00371e-17,-0.980481,0.332962,2.03881e-17,195.347,1176.47)">
                <rect x="0" y="120" width="120" height="1060" style="fill:rgb(111,18,63);"/>
            </g>
            <g transform="matrix(-0.983368,-1.35483e-16,3.39372e-17,-0.332996,353.005,1451.74)">
                <rect x="0" y="120" width="120" height="1060" style="fill:rgb(111,18,63);"/>
            </g>
            <g transform="matrix(1.18118e-15,-0.980568,0.222161,2.58512e-16,90.8555,1411.78)">
                <rect x="0" y="120" width="120" height="1060" style="fill:rgb(111,18,63);"/>
            </g>
            <g transform="matrix(1,0,0,1,-588.373,116.921)">
                <rect x="588.234" y="1294.25" width="117.654" height="117.654" style="fill:rgb(111,18,63);"/>
            </g>
        </g>
        <g transform="matrix(-6.12323e-17,-1,-1,6.12323e-17,1999.7,1999.86)">
            <g transform="matrix(6.00371e-17,-0.980481,0.332962,2.03881e-17,195.347,1176.47)">
                <rect x="0" y="120" width="120" height="1060" style="fill:rgb(111,18,63);"/>
            </g>
            <g transform="matrix(-0.983368,-1.35483e-16,3.39372e-17,-0.332996,353.005,1451.74)">
                <rect x="0" y="120" width="120" height="1060" style="fill:rgb(111,18,63);"/>
            </g>
            <g transform="matrix(1.18118e-15,-0.980568,0.222161,2.58512e-16,90.8555,1411.78)">
                <rect x="0" y="120" width="120" height="1060" style="fill:rgb(111,18,63);"/>
            </g>
            <g transform="matrix(1,0,0,1,-588.373,116.921)">
                <rect x="588.234" y="1294.25" width="117.654" height="117.654" style="fill:rgb(111,18,63);"/>
            </g>
            <g transform="matrix(1,0,0,1,-117.808,234.792)">
                <rect x="588.234" y="1294.25" width="117.654" height="117.654" style="fill:rgb(111,18,63);"/>
            </g>
            <g transform="matrix(1,0,0,1,-235.462,117.124)">
                <rect x="588.234" y="1294.25" width="117.654" height="117.654" style="fill:rgb(111,18,63);"/>
            </g>
        </g>
        <g transform="matrix(5.99657e-17,0.979313,-0.443861,2.71787e-17,1229.18,1411.91)">
            <rect x="0" y="120" width="120" height="1060" style="fill:rgb(111,18,63);"/>
        </g>
        <rect x="588.234" y="1294.25" width="117.654" height="117.654" style="fill:rgb(111,18,63);"/>
        <g transform="matrix(1,0,0,1,706.112,-706.252)">
            <rect x="588.234" y="1294.25" width="117.654" height="117.654" style="fill:rgb(111,18,63);"/>
        </g>
        <g transform="matrix(1,0,0,1,588.458,-588.598)">
            <rect x="588.234" y="1294.25" width="117.654" height="117.654" style="fill:rgb(111,18,63);"/>
        </g>
        <g transform="matrix(1,0,0,1,470.803,-470.943)">
            <rect x="588.234" y="1294.25" width="117.654" height="117.654" style="fill:rgb(111,18,63);"/>
        </g>
        <g transform="matrix(3.00158,0,0,1,-1059.74,-353.289)">
            <rect x="588.234" y="1294.25" width="117.654" height="117.654" style="fill:rgb(111,18,63);"/>
        </g>
        <g transform="matrix(1.83794e-16,3.00158,-1,6.12323e-17,2117.79,-824.666)">
            <rect x="588.234" y="1294.25" width="117.654" height="117.654" style="fill:rgb(111,18,63);"/>
        </g>
        <g transform="matrix(-3.00158,3.67587e-16,-1.22465e-16,-1,2824.67,2588.36)">
            <rect x="588.234" y="1294.25" width="117.654" height="117.654" style="fill:rgb(111,18,63);"/>
        </g>
        <g transform="matrix(-5.51381e-16,-3.00158,1,-1.83697e-16,-352.87,3059.74)">
            <rect x="588.234" y="1294.25" width="117.654" height="117.654" style="fill:rgb(111,18,63);"/>
        </g>
        <g transform="matrix(-0.981241,-1.20167e-16,4.07782e-17,-0.332979,1530,981.246)">
            <rect x="0" y="120" width="120" height="1060" style="fill:rgb(111,18,63);"/>
        </g>
    </g>
</svg>
