<?xml version="1.0" encoding="UTF-8" standalone="no"?>
<!DOCTYPE svg PUBLIC "-//W3C//DTD SVG 1.1//EN" "http://www.w3.org/Graphics/SVG/1.1/DTD/svg11.dtd">
<svg width="100%" height="100%" viewBox="0 0 2000 2000" version="1.1" xmlns="http://www.w3.org/2000/svg" xmlns:xlink="http://www.w3.org/1999/xlink" xml:space="preserve" xmlns:serif="http://www.serif.com/" style="fill-rule:evenodd;clip-rule:evenodd;stroke-linejoin:round;stroke-miterlimit:2;">
    <g transform="matrix(1.05517,0,0,1,-55.9979,0)">
        <g>
            <g transform="matrix(1.95359,0,0,0.180632,-1075.08,0)">
                <rect x="578.168" y="0" width="968.049" height="615.947" style="fill:rgb(111,18,63);"/>
            </g>
            <g transform="matrix(1.95359,0,0,0.180632,-1075.08,1888.74)">
                <rect x="578.168" y="0" width="968.049" height="615.947" style="fill:rgb(111,18,63);"/>
            </g>
            <g transform="matrix(1.26507e-16,2.06601,-0.180632,1.10605e-17,165.683,-1194.5)">
                <rect x="578.168" y="0" width="968.049" height="615.947" style="fill:rgb(111,18,63);"/>
            </g>
            <g transform="matrix(1.26507e-16,2.06601,-0.180632,1.10605e-17,1945.59,-1194.5)">
                <rect x="578.168" y="0" width="968.049" height="615.947" style="fill:rgb(111,18,63);"/>
            </g>
        </g>
        <g transform="matrix(1.95359,0,0,0.180632,-1075.08,1888.74)">
            <rect x="578.168" y="0" width="968.049" height="615.947" style="fill:rgb(111,18,63);"/>
        </g>
        <g transform="matrix(1.95359,0,0,0.180632,-1075.06,1111.09)">
            <rect x="578.168" y="0" width="968.049" height="615.947" style="fill:rgb(111,18,63);"/>
        </g>
        <g transform="matrix(1.03806,0,0,0.180442,-101.681,1444.47)">
            <rect x="578.168" y="0" width="968.049" height="615.947" style="fill:rgb(111,18,63);"/>
        </g>
        <g transform="matrix(0.459818,0,0,0.179939,456.024,1777.91)">
            <rect x="578.168" y="0" width="968.049" height="615.947" style="fill:rgb(111,18,63);"/>
        </g>
        <g transform="matrix(1.00896,0,0,1.00528,-15.045,-5.27786)">
            <rect x="289.404" y="226.565" width="1433.31" height="773.435" style="fill:rgb(111,18,63);"/>
        </g>
        <g transform="matrix(1.01893,0,0,1,-7.78107,0)">
            <rect x="278.907" y="1444.47" width="108.34" height="111.143" style="fill:rgb(111,18,63);"/>
        </g>
        <g>
            <g transform="matrix(1.03097,0,0,1,-122.833,-111.045)">
                <rect x="278.907" y="1444.47" width="108.34" height="111.143" style="fill:rgb(111,18,63);"/>
            </g>
            <g transform="matrix(1.03097,0,0,1.00128,770.099,-113.043)">
                <rect x="278.907" y="1444.47" width="108.34" height="111.143" style="fill:rgb(111,18,63);"/>
            </g>
            <g transform="matrix(1.03097,0,0,1,99.2538,-111.045)">
                <rect x="278.907" y="1444.47" width="108.34" height="111.143" style="fill:rgb(111,18,63);"/>
            </g>
            <g transform="matrix(1.03097,0,0,1,992.186,-111.045)">
                <rect x="278.907" y="1444.47" width="108.34" height="111.143" style="fill:rgb(111,18,63);"/>
            </g>
            <g transform="matrix(1.03097,0,0,1,322.914,-111.045)">
                <rect x="278.907" y="1444.47" width="108.34" height="111.143" style="fill:rgb(111,18,63);"/>
            </g>
            <g transform="matrix(1.03097,0,0,1,1215.85,-111.045)">
                <rect x="278.907" y="1444.47" width="108.34" height="111.143" style="fill:rgb(111,18,63);"/>
            </g>
            <g transform="matrix(1.03097,0,0,1,545.965,-111.116)">
                <rect x="278.907" y="1444.47" width="108.34" height="111.143" style="fill:rgb(111,18,63);"/>
            </g>
        </g>
        <g transform="matrix(0.999766,0,0,1,111.734,-111.214)">
            <g transform="matrix(1.01769,0,0,1,-119.131,-111.045)">
                <rect x="278.907" y="1444.47" width="108.34" height="111.143" style="fill:rgb(111,18,63);"/>
            </g>
            <g transform="matrix(1.01893,0,0,1,773.455,-111.045)">
                <rect x="278.907" y="1444.47" width="108.34" height="111.143" style="fill:rgb(111,18,63);"/>
            </g>
            <g transform="matrix(1.03345,0,0,1.00064,98.5619,-111.973)">
                <rect x="278.907" y="1444.47" width="108.34" height="111.143" style="fill:rgb(111,18,63);"/>
            </g>
            <g transform="matrix(1.03345,0,0,1,991.494,-111.045)">
                <rect x="278.907" y="1444.47" width="108.34" height="111.143" style="fill:rgb(111,18,63);"/>
            </g>
            <g transform="matrix(1.02783,0,0,1,323.787,-111.045)">
                <rect x="278.907" y="1444.47" width="108.34" height="111.143" style="fill:rgb(111,18,63);"/>
            </g>
            <g transform="matrix(1.03097,0,0,1,1215.85,-111.045)">
                <rect x="278.907" y="1444.47" width="108.34" height="111.143" style="fill:rgb(111,18,63);"/>
            </g>
            <g transform="matrix(1.03782,0,0,1,544.053,-111.116)">
                <rect x="278.907" y="1444.47" width="108.34" height="111.143" style="fill:rgb(111,18,63);"/>
            </g>
        </g>
        <g transform="matrix(1.03097,0,0,1,1438.9,-111.116)">
            <rect x="278.907" y="1444.47" width="108.34" height="111.143" style="fill:rgb(111,18,63);"/>
        </g>
        <g transform="matrix(1.02783,0,0,1,1328.41,0.0982388)">
            <rect x="278.907" y="1444.47" width="108.34" height="111.143" style="fill:rgb(111,18,63);"/>
        </g>
    </g>
</svg>
